<svg xmlns="http://www.w3.org/2000/svg">
    <symbol id="icon-fb" viewBox="0 0 20 21" fill="none">
        <path d="M10 0.66333C4.477 0.66333 0 5.14033 0 10.6633C0 15.6543 3.657 19.7913 8.438 20.5423V13.5533H5.898V10.6633H8.438V8.46033C8.438 5.95433 9.93 4.57033 12.215 4.57033C13.309 4.57033 14.453 4.76533 14.453 4.76533V7.22533H13.193C11.95 7.22533 11.563 7.99633 11.563 8.78733V10.6633H14.336L13.893 13.5533H11.563V20.5423C16.343 19.7923 20 15.6533 20 10.6633C20 5.14033 15.523 0.66333 10 0.66333Z" fill="currentcolor"/>
    </symbol>
    <symbol id="icon-ig" viewBox="0 0 20 21" fill="none">
        <path d="M10 0.66333C12.717 0.66333 13.056 0.67333 14.122 0.72333C15.187 0.77333 15.912 0.94033 16.55 1.18833C17.21 1.44233 17.766 1.78633 18.322 2.34133C18.8305 2.84123 19.224 3.44592 19.475 4.11333C19.722 4.75033 19.89 5.47633 19.94 6.54133C19.987 7.60733 20 7.94633 20 10.6633C20 13.3803 19.99 13.7193 19.94 14.7853C19.89 15.8503 19.722 16.5753 19.475 17.2133C19.2247 17.8811 18.8311 18.4859 18.322 18.9853C17.822 19.4937 17.2173 19.8871 16.55 20.1383C15.913 20.3853 15.187 20.5533 14.122 20.6033C13.056 20.6503 12.717 20.6633 10 20.6633C7.283 20.6633 6.944 20.6533 5.878 20.6033C4.813 20.5533 4.088 20.3853 3.45 20.1383C2.78233 19.8878 2.17753 19.4943 1.678 18.9853C1.16941 18.4855 0.775931 17.8808 0.525 17.2133C0.277 16.5763 0.11 15.8503 0.0599999 14.7853C0.0129999 13.7193 0 13.3803 0 10.6633C0 7.94633 0.00999994 7.60733 0.0599999 6.54133C0.11 5.47533 0.277 4.75133 0.525 4.11333C0.775236 3.44551 1.1688 2.84065 1.678 2.34133C2.17767 1.83256 2.78243 1.43906 3.45 1.18833C4.088 0.94033 4.812 0.77333 5.878 0.72333C6.944 0.67633 7.283 0.66333 10 0.66333ZM10 5.66333C8.67392 5.66333 7.40215 6.19011 6.46447 7.1278C5.52678 8.06548 5 9.33725 5 10.6633C5 11.9894 5.52678 13.2612 6.46447 14.1989C7.40215 15.1365 8.67392 15.6633 10 15.6633C11.3261 15.6633 12.5979 15.1365 13.5355 14.1989C14.4732 13.2612 15 11.9894 15 10.6633C15 9.33725 14.4732 8.06548 13.5355 7.1278C12.5979 6.19011 11.3261 5.66333 10 5.66333ZM16.5 5.41333C16.5 5.08181 16.3683 4.76387 16.1339 4.52945C15.8995 4.29503 15.5815 4.16333 15.25 4.16333C14.9185 4.16333 14.6005 4.29503 14.3661 4.52945C14.1317 4.76387 14 5.08181 14 5.41333C14 5.74485 14.1317 6.06279 14.3661 6.29721C14.6005 6.53163 14.9185 6.66333 15.25 6.66333C15.5815 6.66333 15.8995 6.53163 16.1339 6.29721C16.3683 6.06279 16.5 5.74485 16.5 5.41333ZM10 7.66333C10.7956 7.66333 11.5587 7.9794 12.1213 8.54201C12.6839 9.10462 13 9.86768 13 10.6633C13 11.459 12.6839 12.222 12.1213 12.7847C11.5587 13.3473 10.7956 13.6633 10 13.6633C9.20435 13.6633 8.44129 13.3473 7.87868 12.7847C7.31607 12.222 7 11.459 7 10.6633C7 9.86768 7.31607 9.10462 7.87868 8.54201C8.44129 7.9794 9.20435 7.66333 10 7.66333Z" fill="currentcolor"/>
    </symbol>
    <symbol id="icon-yt" viewBox="0 0 20 17" fill="none">
        <path d="M19.543 3.16109C20 4.94309 20 8.66309 20 8.66309C20 8.66309 20 12.3831 19.543 14.1651C19.289 15.1501 18.546 15.9251 17.605 16.1871C15.896 16.6631 10 16.6631 10 16.6631C10 16.6631 4.107 16.6631 2.395 16.1871C1.45 15.9211 0.708 15.1471 0.457 14.1651C2.98023e-08 12.3831 0 8.66309 0 8.66309C0 8.66309 2.98023e-08 4.94309 0.457 3.16109C0.711 2.17609 1.454 1.40109 2.395 1.13909C4.107 0.663086 10 0.663086 10 0.663086C10 0.663086 15.896 0.663086 17.605 1.13909C18.55 1.40509 19.292 2.17909 19.543 3.16109ZM8 12.1631L14 8.66309L8 5.16309V12.1631Z" fill="currentcolor"/>
    </symbol>
    <symbol id="icon-tw" viewBox="0 0 22 17" fill="none">
        <path d="M21.162 2.31901C20.3986 2.65671 19.589 2.87849 18.76 2.97701C19.6337 2.45445 20.2877 1.63203 20.6 0.663012C19.78 1.15101 18.881 1.49301 17.944 1.67801C17.3146 1.00459 16.4804 0.557976 15.5709 0.407597C14.6615 0.257219 13.7279 0.411504 12.9153 0.846466C12.1026 1.28143 11.4564 1.9727 11.0771 2.81281C10.6978 3.65291 10.6067 4.59479 10.818 5.49201C9.1551 5.40867 7.52832 4.97654 6.04328 4.22368C4.55823 3.47082 3.24812 2.41406 2.19799 1.12201C1.82628 1.76046 1.63095 2.48624 1.63199 3.22501C1.63199 4.67501 2.36999 5.95601 3.49199 6.70601C2.828 6.68511 2.17862 6.50579 1.59799 6.18301V6.23501C1.59819 7.20071 1.93236 8.13663 2.54384 8.88407C3.15532 9.63152 4.00647 10.1445 4.95299 10.336C4.33661 10.503 3.6903 10.5277 3.06299 10.408C3.32986 11.2392 3.85 11.9662 4.55058 12.4871C5.25117 13.008 6.09712 13.2968 6.96999 13.313C6.10247 13.9943 5.10917 14.498 4.04687 14.7952C2.98458 15.0924 1.87412 15.1773 0.778992 15.045C2.69069 16.2744 4.91609 16.9271 7.18899 16.925C14.882 16.925 19.089 10.552 19.089 5.02501C19.089 4.84501 19.084 4.66301 19.076 4.48501C19.8949 3.89318 20.6016 3.16003 21.163 2.32001L21.162 2.31901Z" fill="currentcolor"/>
    </symbol>
    <symbol id="icon-arrow" viewBox="0 0 28 27" fill="none">
        <path d="M14 15.3298H0.666656V11.9965H14V0.329834L27.3333 13.6632L14 26.9965V15.3298Z" fill="currentcolor"/>
    </symbol>
    <symbol id="icon-arrowdown" viewBox="0 0 24 24" fill="none" >
        <path d="M5.70711 9.71069C5.31658 10.1012 5.31658 10.7344 5.70711 11.1249L10.5993 16.0123C11.3805 16.7927 12.6463 16.7924 13.4271 16.0117L18.3174 11.1213C18.708 10.7308 18.708 10.0976 18.3174 9.70708C17.9269 9.31655 17.2937 9.31655 16.9032 9.70708L12.7176 13.8927C12.3271 14.2833 11.6939 14.2832 11.3034 13.8927L7.12132 9.71069C6.7308 9.32016 6.09763 9.32016 5.70711 9.71069Z" fill="currentcolor"></path>
    </symbol>
    <symbol id="icon-arrowup" viewBox="0 0 24 24" fill="none">
        <path d="M18.2929 15.2893C18.6834 14.8988 18.6834 14.2656 18.2929 13.8751L13.4007 8.98766C12.6195 8.20726 11.3537 8.20757 10.5729 8.98835L5.68257 13.8787C5.29205 14.2692 5.29205 14.9024 5.68257 15.2929C6.0731 15.6835 6.70626 15.6835 7.09679 15.2929L11.2824 11.1073C11.673 10.7168 12.3061 10.7168 12.6966 11.1073L16.8787 15.2893C17.2692 15.6798 17.9024 15.6798 18.2929 15.2893Z" fill="currentcolor"></path>
    </symbol>
</svg>